<svg width="38" height="38" viewBox="0 0 38 38" fill="none" xmlns="http://www.w3.org/2000/svg">
<path d="M36.7859 34.612L27.7419 25.2057C30.0673 22.4414 31.3413 18.9633 31.3413 15.3425C31.3413 6.88277 24.4586 0 15.9989 0C7.53914 0 0.656372 6.88277 0.656372 15.3425C0.656372 23.8022 7.53914 30.685 15.9989 30.685C19.1748 30.685 22.2012 29.7271 24.7888 27.9086L33.9015 37.3863C34.2824 37.7819 34.7947 38 35.3437 38C35.8634 38 36.3563 37.8019 36.7306 37.4417C37.5257 36.6765 37.551 35.4078 36.7859 34.612ZM15.9989 4.00239C22.2519 4.00239 27.339 9.08942 27.339 15.3425C27.339 21.5955 22.2519 26.6826 15.9989 26.6826C9.74579 26.6826 4.65876 21.5955 4.65876 15.3425C4.65876 9.08942 9.74579 4.00239 15.9989 4.00239Z" fill="white" fill-opacity="0.8"/>
</svg>
