<svg width="37" height="37" viewBox="0 0 37 37" fill="none" xmlns="http://www.w3.org/2000/svg">
<path d="M15.3626 4.97661V0.649123C13.6316 1.08187 12.117 1.73099 10.6023 2.81287L13.848 6.05848C14.2807 5.62573 14.7135 5.19298 15.3626 4.97661ZM0 3.02924L5.19298 8.22222C3.46199 10.8187 2.38012 13.848 2.38012 17.3099C2.38012 22.0702 4.32749 26.3977 7.5731 29.4269L2.38012 34.6199H15.3626V21.6374L10.6023 26.3977C8.22222 24.2339 6.7076 20.9883 6.7076 17.3099C6.7076 15.1462 7.14035 13.1988 8.22222 11.2515L25.7485 28.7778C25.3157 28.9942 24.6667 29.2105 24.0175 29.4268V33.9707C25.7485 33.5379 27.2632 32.8888 28.7778 31.8069L33.9708 36.9999L36.7836 34.1871L2.59649 0.216374L0 3.02924ZM37 0H24.0175V12.9825L28.7778 8.22222C31.158 10.386 32.6725 13.6316 32.6725 17.3099C32.6725 19.4737 32.2398 21.4211 31.1579 23.3684L34.4035 26.614C35.9181 23.8012 37 20.7718 37 17.3099C37 12.5497 35.0526 8.22222 31.807 5.19298L37 0Z" fill="white" fill-opacity="0.8"/>
</svg>
