<svg width="71" height="79" viewBox="0 0 71 79" fill="none" xmlns="http://www.w3.org/2000/svg">
<g clip-path="url(#clip0)" filter="url(#filter0_d)">
<path d="M62.6968 22.2051C57.3529 22.2051 41.3215 22.2051 41.3215 22.2051C40.8016 22.2051 40.3758 21.7798 40.3758 21.2599V1.30515C40.3758 1.00788 40.4049 0.696065 40.2767 0.427826C40.1744 0.213718 39.9667 0.000244141 39.5448 0.000244141C31.9001 0.000244141 8.96669 0.000244141 8.96669 0.000244141C8.96669 0.000244141 8.96669 0.000244141 8.96669 0.000244141C8.10681 0.000244141 7.40302 0.70404 7.40302 1.56392V69.4364C7.40302 70.2963 8.10681 71.0001 8.96669 71.0001H62.0329C62.8931 71.0001 63.5968 70.2963 63.5968 69.4364V24.5996C63.5968 23.7946 63.5017 22.2051 62.6968 22.2051Z" fill="#308C88" fill-opacity="0.8"/>
<path d="M44.606 19.2183H62.9414C63.6034 19.2183 63.753 18.8407 63.2737 18.3794L44.2736 0.259823C43.7946 -0.201654 43.4025 -0.0318516 43.4025 0.637022V18.0019C43.4028 18.6715 43.9441 19.2183 44.606 19.2183Z" fill="#308C88" fill-opacity="0.8"/>
<line x1="20.2773" y1="30.45" x2="50.7228" y2="30.45" stroke="#FAFAFA" stroke-opacity="0.6" stroke-width="3"/>
<line x1="20.2857" y1="40.0857" x2="50.7312" y2="40.0857" stroke="#FAFAFA" stroke-opacity="0.6" stroke-width="3"/>
<line x1="20.2857" y1="50.2286" x2="50.7312" y2="50.2286" stroke="#FAFAFA" stroke-opacity="0.6" stroke-width="3"/>
</g>
<defs>
<filter id="filter0_d" x="-4" y="0" width="79" height="79" filterUnits="userSpaceOnUse" color-interpolation-filters="sRGB">
<feFlood flood-opacity="0" result="BackgroundImageFix"/>
<feColorMatrix in="SourceAlpha" type="matrix" values="0 0 0 0 0 0 0 0 0 0 0 0 0 0 0 0 0 0 127 0"/>
<feOffset dy="4"/>
<feGaussianBlur stdDeviation="2"/>
<feColorMatrix type="matrix" values="0 0 0 0 0 0 0 0 0 0 0 0 0 0 0 0 0 0 0.25 0"/>
<feBlend mode="normal" in2="BackgroundImageFix" result="effect1_dropShadow"/>
<feBlend mode="normal" in="SourceGraphic" in2="effect1_dropShadow" result="shape"/>
</filter>
<clipPath id="clip0">
<rect width="71" height="71" fill="white"/>
</clipPath>
</defs>
</svg>
