<svg width="70" height="70" viewBox="0 0 70 70" fill="none" xmlns="http://www.w3.org/2000/svg">
<g clip-path="url(#clip0)">
<g filter="url(#filter0_d)">
<path d="M61.8141 21.8923C56.5455 21.8923 40.7399 21.8923 40.7399 21.8923C40.7399 21.8923 40.7399 21.8923 40.7399 21.8923C40.2273 21.8923 39.8075 21.473 39.8075 20.9604V1.29306C39.8075 0.995779 39.8372 0.683509 39.7071 0.416195C39.6053 0.207 39.4005 0.000244141 38.9882 0.000244141C31.4512 0.000244141 8.84078 0.000244141 8.84078 0.000244141C8.84078 0.000244141 8.84078 0.000244141 8.84078 0.000244141C7.99302 0.000244141 7.29913 0.694127 7.29913 1.54189V68.4584C7.29913 69.3062 7.99302 70.0001 8.84078 70.0001H61.1596C62.0077 70.0001 62.7014 69.3062 62.7014 68.4584V24.2531C62.7014 23.4595 62.6077 21.8923 61.8141 21.8923Z" fill="#AB5B77"/>
<path d="M43.9781 18.9476H62.0553C62.7079 18.9476 62.8554 18.5754 62.3829 18.1206L43.6503 0.256147C43.1781 -0.198829 42.7915 -0.0314189 42.7915 0.628034V17.7483C42.7919 18.4085 43.3255 18.9476 43.9781 18.9476Z" fill="#AB5B77"/>
</g>
<path d="M49.0004 39.125V40.875H35.8754V54H34.1254V40.875H21.0004V39.125H34.1254V26H35.8754V39.125H49.0004Z" fill="#FAFAFA" fill-opacity="0.6"/>
<path d="M49.0004 39.125H50.0004V38.125H49.0004V39.125ZM49.0004 40.875V41.875H50.0004V40.875H49.0004ZM35.8754 40.875V39.875H34.8754V40.875H35.8754ZM35.8754 54V55H36.8754V54H35.8754ZM34.1254 54H33.1254V55H34.1254V54ZM34.1254 40.875H35.1254V39.875H34.1254V40.875ZM21.0004 40.875H20.0004V41.875H21.0004V40.875ZM21.0004 39.125V38.125H20.0004V39.125H21.0004ZM34.1254 39.125V40.125H35.1254V39.125H34.1254ZM34.1254 26V25H33.1254V26H34.1254ZM35.8754 26H36.8754V25H35.8754V26ZM35.8754 39.125H34.8754V40.125H35.8754V39.125ZM48.0004 39.125V40.875H50.0004V39.125H48.0004ZM49.0004 39.875H35.8754V41.875H49.0004V39.875ZM34.8754 40.875V54H36.8754V40.875H34.8754ZM35.8754 53H34.1254V55H35.8754V53ZM35.1254 54V40.875H33.1254V54H35.1254ZM34.1254 39.875H21.0004V41.875H34.1254V39.875ZM22.0004 40.875V39.125H20.0004V40.875H22.0004ZM21.0004 40.125H34.1254V38.125H21.0004V40.125ZM35.1254 39.125V26H33.1254V39.125H35.1254ZM34.1254 27H35.8754V25H34.1254V27ZM34.8754 26V39.125H36.8754V26H34.8754ZM35.8754 40.125H49.0004V38.125H35.8754V40.125Z" fill="#A7C5C5"/>
</g>
<defs>
<filter id="filter0_d" x="3.29913" y="-6.10352e-05" width="63.4023" height="78.0001" filterUnits="userSpaceOnUse" color-interpolation-filters="sRGB">
<feFlood flood-opacity="0" result="BackgroundImageFix"/>
<feColorMatrix in="SourceAlpha" type="matrix" values="0 0 0 0 0 0 0 0 0 0 0 0 0 0 0 0 0 0 127 0"/>
<feOffset dy="4"/>
<feGaussianBlur stdDeviation="2"/>
<feColorMatrix type="matrix" values="0 0 0 0 0 0 0 0 0 0 0 0 0 0 0 0 0 0 0.25 0"/>
<feBlend mode="normal" in2="BackgroundImageFix" result="effect1_dropShadow"/>
<feBlend mode="normal" in="SourceGraphic" in2="effect1_dropShadow" result="shape"/>
</filter>
<clipPath id="clip0">
<rect width="70" height="70" fill="white" transform="translate(0.000366211)"/>
</clipPath>
</defs>
</svg>
