<svg width="74" height="72" viewBox="0 0 74 72" fill="none" xmlns="http://www.w3.org/2000/svg">
<path d="M63.7978 19.7205V67.3616C63.7978 69.9237 61.662 71.9999 59.0308 71.9999H14.9694C12.3362 71.9999 10.2023 69.9237 10.2023 67.3616V4.63823C10.2022 2.07619 12.336 0 14.9694 0H43.5295L63.7978 19.7205Z" fill="#518EF8" fill-opacity="0.6"/>
<path d="M50.7024 36.1482H23.2955V39.1113H50.7024V36.1482Z" fill="white" fill-opacity="0.7"/>
<path d="M50.7024 42.7658H23.2955V45.7289H50.7024V42.7658Z" fill="white" fill-opacity="0.7"/>
<path d="M50.7024 49.3835H23.2955V52.3466H50.7024V49.3835Z" fill="white" fill-opacity="0.7"/>
<path d="M42.7863 56.0011H23.2955V58.9642H42.7863V56.0011Z" fill="white" fill-opacity="0.7"/>
<path d="M46.2948 19.2921L63.7978 26.308V19.7205L53.8742 16.8697L46.2948 19.2921Z" fill="#3A5BBC"/>
<path d="M63.7978 19.7205H48.2966C45.6632 19.7205 43.5295 17.6444 43.5295 15.0823V0L63.7978 19.7205Z" fill="#ACD1FC"/>
</svg>
