<svg width="36" height="32" viewBox="0 0 36 32" fill="none" xmlns="http://www.w3.org/2000/svg">
<path d="M29.5382 5.0079H21.4834C19.8017 5.0079 18.4293 3.64133 18.4293 1.95387C18.4293 1.1478 17.7815 0.5 16.9755 0.5H6.46176C3.17564 0.5 0.5 3.17565 0.5 6.46176V24.7265C0.5 28.0126 3.17565 30.6883 6.46176 30.6883H29.5382C32.8244 30.6883 35.5 28.0126 35.5 24.7265V10.9626C35.5 7.67563 32.8235 5.0079 29.5382 5.0079ZM32.5923 24.7195C32.5923 26.4011 31.2257 27.7735 29.5382 27.7735H6.46176C4.78007 27.7735 3.40773 26.4069 3.40773 24.7195V6.46176C3.40773 4.78007 4.7743 3.40773 6.46176 3.40773H15.7023C16.3528 5.99402 18.6976 7.91563 21.4834 7.91563H29.5382C31.2199 7.91563 32.5923 9.28219 32.5923 10.9697V24.7195Z" fill="#B6B6B6" stroke="#B6B6B6"/>
</svg>
