<svg width="38" height="31" viewBox="0 0 38 31" fill="none" xmlns="http://www.w3.org/2000/svg">
<path d="M19 6.10455L5.44748 17.2772C5.44748 17.2929 5.44352 17.3161 5.43559 17.3478C5.42783 17.3791 5.42371 17.4019 5.42371 17.4181V28.7316C5.42371 29.14 5.57305 29.494 5.87165 29.7921C6.17017 30.0904 6.52367 30.2405 6.93224 30.2405H15.9828V21.1895H22.0173V30.2408H31.0678C31.4763 30.2408 31.8303 30.0911 32.1284 29.7921C32.427 29.4944 32.5768 29.1401 32.5768 28.7316V17.4181C32.5768 17.3554 32.5682 17.308 32.553 17.2772L19 6.10455Z" fill="#B6B6B6"/>
<path d="M37.7379 14.7315L32.5764 10.4418V0.82514C32.5764 0.605295 32.5057 0.424499 32.3639 0.283C32.2232 0.141665 32.0424 0.0709976 31.8221 0.0709976H27.2967C27.0766 0.0709976 26.8959 0.141665 26.7543 0.283C26.6131 0.424499 26.5425 0.605378 26.5425 0.82514V5.42124L20.7915 0.612808C20.2892 0.204242 19.692 0 19.0006 0C18.3092 0 17.712 0.204242 17.2093 0.612808L0.261911 14.7315C0.104809 14.857 0.0187035 15.0259 0.00268779 15.2381C-0.0132454 15.4501 0.0416539 15.6352 0.167551 15.7922L1.62886 17.5365C1.75476 17.6778 1.91954 17.7642 2.12386 17.7959C2.3125 17.8117 2.50114 17.7566 2.68978 17.6309L19.0001 4.0306L35.3105 17.6308C35.4365 17.7405 35.6012 17.7952 35.8055 17.7952H35.8763C36.0803 17.7642 36.2448 17.6772 36.3713 17.5361L37.8328 15.7922C37.9585 15.6348 38.0135 15.45 37.9972 15.2377C37.9811 15.0261 37.8947 14.8572 37.7379 14.7315Z" fill="#B6B6B6"/>
</svg>
