<svg width="33" height="39" viewBox="0 0 33 39" fill="none" xmlns="http://www.w3.org/2000/svg">
<path d="M24.9245 0H4.51569C2.02559 0 0 2.09643 0 4.67322V33.6461C0 36.2229 2.02551 38.3193 4.51569 38.3193H28.4843C30.9745 38.3192 33 36.2228 33 33.646V8.55404L24.9245 0ZM28.4843 34.9872H4.51569C3.80117 34.9872 3.21953 34.3855 3.21953 33.6462V4.67322C3.21953 3.93372 3.80125 3.33213 4.51569 3.33213H23.3415V7.06249C23.3415 8.71147 24.6369 10.053 26.2301 10.0697L29.7805 10.107V33.6462C29.7805 34.3855 29.1987 34.9872 28.4843 34.9872Z" fill="#B6B6B6"/>
</svg>
