<svg width="34" height="32" viewBox="0 0 34 32" fill="none" xmlns="http://www.w3.org/2000/svg">
<rect width="34" height="32" rx="3" fill="#338E90"/>
<g clip-path="url(#clip0)">
<path d="M23.9883 14.2227C23.9716 14.142 23.9154 14.0748 23.8389 14.0444C23.164 13.7754 22.4485 13.6391 21.712 13.6391C20.5641 13.6391 19.6783 13.9672 19.3362 14.1153L15.6874 11.0109C15.8149 9.89069 15.2107 9.12458 15.1837 9.09123C15.1398 9.03703 15.0753 9.00393 15.0059 9C14.9367 8.99853 14.8683 9.02232 14.8193 9.07161L11.0785 12.8124C11.029 12.8617 11.003 12.9298 11.0071 13C11.0111 13.0696 11.0447 13.1346 11.0994 13.178C11.6342 13.6023 12.287 13.6915 12.7402 13.6915C12.8412 13.6915 12.9276 13.6869 12.9935 13.6817L16.1134 17.3489C15.9005 17.8958 15.2502 19.8675 16.0381 21.8458C16.0685 21.9225 16.1354 21.9784 16.2164 21.9951C16.2328 21.9985 16.2495 22.0003 16.2659 22.0003C16.3304 22.0003 16.3929 21.9747 16.4393 21.9284L20.0123 18.3554L23.3401 21.6832C23.3879 21.731 23.4507 21.755 23.5135 21.755C23.5763 21.755 23.6391 21.731 23.6869 21.6832C23.7828 21.5873 23.7828 21.4323 23.6869 21.3364L20.3591 18.0086L23.9216 14.4459C23.9799 14.3875 24.0049 14.3036 23.9883 14.2227Z" fill="white" fill-opacity="0.8"/>
</g>
<defs>
<clipPath id="clip0">
<rect width="13" height="13" fill="white" transform="translate(11 9)"/>
</clipPath>
</defs>
</svg>
