<svg width="34" height="32" viewBox="0 0 34 32" fill="none" xmlns="http://www.w3.org/2000/svg">
<rect width="34" height="32" rx="3" fill="#A4333E"/>
<path d="M18.6221 16L23.3389 20.7236L22.7236 21.3389L18 16.6221L13.2764 21.3389L12.6611 20.7236L17.3779 16L12.6611 11.2764L13.2764 10.6611L18 15.3779L22.7236 10.6611L23.3389 11.2764L18.6221 16Z" fill="white" fill-opacity="0.8"/>
<path d="M18.6221 16L17.9145 15.2934L17.2089 16L17.9145 16.7066L18.6221 16ZM23.3389 20.7236L24.046 21.4307L24.7526 20.7241L24.0465 20.017L23.3389 20.7236ZM22.7236 21.3389L22.017 22.0465L22.7241 22.7526L23.4307 22.046L22.7236 21.3389ZM18 16.6221L18.7066 15.9145L18 15.2089L17.2934 15.9145L18 16.6221ZM13.2764 21.3389L12.5693 22.046L13.2759 22.7526L13.983 22.0465L13.2764 21.3389ZM12.6611 20.7236L11.9535 20.017L11.2474 20.7241L11.954 21.4307L12.6611 20.7236ZM17.3779 16L18.0855 16.7066L18.7911 16L18.0855 15.2934L17.3779 16ZM12.6611 11.2764L11.954 10.5693L11.2474 11.2759L11.9535 11.983L12.6611 11.2764ZM13.2764 10.6611L13.983 9.95351L13.2759 9.24743L12.5693 9.95403L13.2764 10.6611ZM18 15.3779L17.2934 16.0855L18 16.7911L18.7066 16.0855L18 15.3779ZM22.7236 10.6611L23.4307 9.95403L22.7241 9.24743L22.017 9.95351L22.7236 10.6611ZM23.3389 11.2764L24.0465 11.983L24.7526 11.2759L24.046 10.5693L23.3389 11.2764ZM17.9145 16.7066L22.6312 21.4302L24.0465 20.017L19.3297 15.2934L17.9145 16.7066ZM22.6318 20.0165L22.0165 20.6318L23.4307 22.046L24.046 21.4307L22.6318 20.0165ZM23.4302 20.6312L18.7066 15.9145L17.2934 17.3297L22.017 22.0465L23.4302 20.6312ZM17.2934 15.9145L12.5698 20.6312L13.983 22.0465L18.7066 17.3297L17.2934 15.9145ZM13.9835 20.6318L13.3682 20.0165L11.954 21.4307L12.5693 22.046L13.9835 20.6318ZM13.3688 21.4302L18.0855 16.7066L16.6703 15.2934L11.9535 20.017L13.3688 21.4302ZM18.0855 15.2934L13.3688 10.5698L11.9535 11.983L16.6703 16.7066L18.0855 15.2934ZM13.3682 11.9835L13.9835 11.3682L12.5693 9.95403L11.954 10.5693L13.3682 11.9835ZM12.5698 11.3688L17.2934 16.0855L18.7066 14.6703L13.983 9.95351L12.5698 11.3688ZM18.7066 16.0855L23.4302 11.3688L22.017 9.95351L17.2934 14.6703L18.7066 16.0855ZM22.0165 11.3682L22.6318 11.9835L24.046 10.5693L23.4307 9.95403L22.0165 11.3682ZM22.6312 10.5698L17.9145 15.2934L19.3297 16.7066L24.0465 11.983L22.6312 10.5698Z" fill="white" fill-opacity="0.8"/>
</svg>
