<svg width="34" height="34" viewBox="0 0 34 34" fill="none" xmlns="http://www.w3.org/2000/svg">
<path d="M31.25 0.375C31.584 0.375 31.8932 0.436849 32.1777 0.560547C32.4622 0.684245 32.7096 0.857422 32.9199 1.08008C33.1426 1.29036 33.3158 1.53776 33.4395 1.82227C33.5632 2.10677 33.625 2.41602 33.625 2.75V33.625H4.62402L0.375 29.3574V2.75C0.375 2.41602 0.436849 2.10677 0.560547 1.82227C0.684245 1.53776 0.851237 1.29036 1.06152 1.08008C1.28418 0.857422 1.53776 0.684245 1.82227 0.560547C2.10677 0.436849 2.41602 0.375 2.75 0.375H31.25ZM7.5 14.625H26.5V2.75H7.5V14.625ZM21.75 24.125H9.875V31.25H12.25V26.5H14.625V31.25H21.75V24.125ZM31.25 2.75H28.875V17H5.125V2.75H2.75V28.374L5.60742 31.25H7.5V21.75H24.125V31.25H31.25V2.75Z" fill="white" fill-opacity="0.8"/>
</svg>
